<?xml version="1.0" standalone="no"?>
<!DOCTYPE svg PUBLIC "-//W3C//DTD SVG 20010904//EN"
 "http://www.w3.org/TR/2001/REC-SVG-20010904/DTD/svg10.dtd">
<svg version="1.0" xmlns="http://www.w3.org/2000/svg"
 width="768.000000pt" height="768.000000pt" viewBox="0 0 768.000000 768.000000"
 preserveAspectRatio="xMidYMid meet">
<metadata>
Created by potrace 1.11, written by Peter Selinger 2001-2013
</metadata>
<g transform="translate(0.000000,768.000000) scale(0.100000,-0.100000)"
fill="#000000" stroke="none">
<path d="M3818 5805 c-2 -1 -43 -5 -93 -9 -95 -6 -106 -8 -220 -32 -162 -34
-360 -121 -517 -227 -146 -98 -329 -287 -423 -437 -73 -115 -141 -269 -175
-393 -31 -111 -33 -125 -46 -232 -11 -92 -12 -106 -13 -166 l-1 -56 -47 9
c-94 18 -300 15 -433 -8 -73 -13 -247 -76 -327 -120 -264 -144 -476 -393 -569
-669 -62 -186 -79 -444 -39 -629 65 -308 250 -581 510 -755 202 -135 418 -201
668 -204 105 -1 769 22 774 27 2 2 -15 43 -38 92 -54 117 -123 302 -155 417
-37 129 -40 283 -11 437 54 281 218 541 457 724 131 100 356 198 511 221 24 4
55 9 69 11 31 4 246 4 280 0 217 -31 406 -108 575 -235 241 -181 421 -476 460
-756 3 -22 8 -51 11 -63 6 -31 6 -188 -1 -227 -24 -137 -76 -314 -141 -477
-30 -75 -54 -139 -54 -142 0 -3 30 -5 68 -5 60 1 147 -2 457 -16 112 -6 352
-6 385 -1 14 2 43 7 65 10 375 60 706 305 879 653 163 326 164 737 4 1058
-144 287 -397 507 -701 611 -173 59 -458 77 -611 38 l-26 -6 -1 88 c0 49 -3
103 -5 119 -4 28 -29 163 -38 210 -27 137 -172 434 -267 549 -166 200 -319
327 -516 425 -174 87 -374 144 -558 157 -49 3 -102 7 -117 9 -15 1 -29 1 -30
0z"/>
<path d="M3790 3233 c-262 -32 -480 -215 -545 -459 -20 -73 -26 -204 -13 -270
5 -27 11 -59 14 -72 8 -38 51 -129 85 -179 75 -109 203 -204 329 -244 84 -28
241 -34 327 -14 187 44 347 171 427 340 47 97 60 163 60 285 -1 128 -31 228
-100 332 -86 128 -238 236 -379 267 -52 12 -162 19 -205 14z"/>
</g>
</svg>
